<svg width="32" height="32" viewBox="0 0 32 32" fill="none" xmlns="http://www.w3.org/2000/svg">
<circle cx="16" cy="16" r="16" fill="#1A3365"/>
<path d="M11.0359 13.4439C11.7301 16.5423 13.4057 19.3549 15.7885 21.4607L18.4648 19.8741C18.7932 19.6794 19.2031 19.6912 19.5125 19.8942C20.5059 20.53 21.6287 21.0235 22.8301 21.3306C23.3629 21.4668 23.6875 22.0142 23.5512 22.5471L22.6869 25.9284C22.5507 26.4612 22.0032 26.7858 21.4704 26.6495C12.3729 24.324 6.88474 15.0663 9.21033 5.96885C9.34654 5.43598 9.89397 5.11145 10.4268 5.24767L13.8178 6.1145C14.3507 6.25071 14.6752 6.79814 14.539 7.33101C14.2294 8.54207 14.126 9.75421 14.207 10.931C14.2269 11.2973 14.0528 11.6553 13.7122 11.8573L11.0359 13.4439Z" fill="white"/>
</svg>
