<svg width="32" height="32" viewBox="0 0 32 32" fill="none" xmlns="http://www.w3.org/2000/svg">
<circle cx="16" cy="16" r="15" stroke="#1A3365" stroke-width="2"/>
<mask id="path-2-inside-1" fill="white">
<path fill-rule="evenodd" clip-rule="evenodd" d="M11.5 7C10.1193 7 9 8.11929 9 9.5V23.5C9 24.8807 10.1193 26 11.5 26H21.5C22.8807 26 24 24.8807 24 23.5V11.3824V11.1411L23.8111 10.991L18.9274 7.1086L18.7908 7H18.6163H11.5ZM10 9.5C10 8.67157 10.6716 8 11.5 8H18.1163V10.3824C18.1163 11.2108 18.7879 11.8824 19.6163 11.8824H23V23.5C23 24.3284 22.3284 25 21.5 25H11.5C10.6716 25 10 24.3284 10 23.5V9.5ZM22.0675 10.8824L19.1163 8.53622V10.3824C19.1163 10.6585 19.3401 10.8824 19.6163 10.8824H22.0675ZM13 14.5C12.7239 14.5 12.5 14.7239 12.5 15C12.5 15.2761 12.7239 15.5 13 15.5H20C20.2761 15.5 20.5 15.2761 20.5 15C20.5 14.7239 20.2761 14.5 20 14.5H13ZM12.5 18C12.5 17.7239 12.7239 17.5 13 17.5H20C20.2761 17.5 20.5 17.7239 20.5 18C20.5 18.2761 20.2761 18.5 20 18.5H13C12.7239 18.5 12.5 18.2761 12.5 18ZM13 20.5C12.7239 20.5 12.5 20.7239 12.5 21C12.5 21.2761 12.7239 21.5 13 21.5H20C20.2761 21.5 20.5 21.2761 20.5 21C20.5 20.7239 20.2761 20.5 20 20.5H13Z"/>
</mask>
<path d="M24 11.1411H25V10.6586L24.6223 10.3583L24 11.1411ZM23.8111 10.991L24.4334 10.2082L24.4334 10.2082L23.8111 10.991ZM18.9274 7.1086L18.3051 7.89139L18.3051 7.8914L18.9274 7.1086ZM18.7908 7L19.4131 6.21721L19.1399 6H18.7908V7ZM18.1163 8H19.1163V7H18.1163V8ZM23 11.8824H24V10.8824H23V11.8824ZM19.1163 8.53622L19.7386 7.75343L18.1163 6.46378V8.53622H19.1163ZM22.0675 10.8824V11.8824H24.9325L22.6898 10.0996L22.0675 10.8824ZM10 9.5C10 8.67157 10.6716 8 11.5 8V6C9.567 6 8 7.567 8 9.5H10ZM10 23.5V9.5H8V23.5H10ZM11.5 25C10.6716 25 10 24.3284 10 23.5H8C8 25.433 9.567 27 11.5 27V25ZM21.5 25H11.5V27H21.5V25ZM23 23.5C23 24.3284 22.3284 25 21.5 25V27C23.433 27 25 25.433 25 23.5H23ZM23 11.3824V23.5H25V11.3824H23ZM23 11.1411V11.3824H25V11.1411H23ZM23.1889 11.7737L23.3777 11.9239L24.6223 10.3583L24.4334 10.2082L23.1889 11.7737ZM18.3051 7.8914L23.1889 11.7737L24.4334 10.2082L19.5497 6.32581L18.3051 7.8914ZM18.1685 7.78279L18.3051 7.89139L19.5497 6.32582L19.4131 6.21721L18.1685 7.78279ZM18.6163 8H18.7908V6H18.6163V8ZM11.5 8H18.6163V6H11.5V8ZM11.5 7C10.1193 7 9 8.11929 9 9.5H11C11 9.22386 11.2239 9 11.5 9V7ZM18.1163 7H11.5V9H18.1163V7ZM19.1163 10.3824V8H17.1163V10.3824H19.1163ZM19.6163 10.8824C19.3401 10.8824 19.1163 10.6585 19.1163 10.3824H17.1163C17.1163 11.7631 18.2356 12.8824 19.6163 12.8824V10.8824ZM23 10.8824H19.6163V12.8824H23V10.8824ZM24 23.5V11.8824H22V23.5H24ZM21.5 26C22.8807 26 24 24.8807 24 23.5H22C22 23.7761 21.7761 24 21.5 24V26ZM11.5 26H21.5V24H11.5V26ZM9 23.5C9 24.8807 10.1193 26 11.5 26V24C11.2239 24 11 23.7761 11 23.5H9ZM9 9.5V23.5H11V9.5H9ZM18.494 9.31901L21.4453 11.6651L22.6898 10.0996L19.7386 7.75343L18.494 9.31901ZM20.1163 10.3824V8.53622H18.1163V10.3824H20.1163ZM19.6163 9.88235C19.8924 9.88235 20.1163 10.1062 20.1163 10.3824H18.1163C18.1163 11.2108 18.7879 11.8824 19.6163 11.8824V9.88235ZM22.0675 9.88235H19.6163V11.8824H22.0675V9.88235ZM13.5 15C13.5 15.2761 13.2761 15.5 13 15.5V13.5C12.1716 13.5 11.5 14.1716 11.5 15H13.5ZM13 14.5C13.2761 14.5 13.5 14.7239 13.5 15H11.5C11.5 15.8284 12.1716 16.5 13 16.5V14.5ZM20 14.5H13V16.5H20V14.5ZM19.5 15C19.5 14.7239 19.7239 14.5 20 14.5V16.5C20.8284 16.5 21.5 15.8284 21.5 15H19.5ZM20 15.5C19.7239 15.5 19.5 15.2761 19.5 15H21.5C21.5 14.1716 20.8284 13.5 20 13.5V15.5ZM13 15.5H20V13.5H13V15.5ZM13 16.5C12.1716 16.5 11.5 17.1716 11.5 18H13.5C13.5 18.2761 13.2761 18.5 13 18.5V16.5ZM20 16.5H13V18.5H20V16.5ZM21.5 18C21.5 17.1716 20.8284 16.5 20 16.5V18.5C19.7239 18.5 19.5 18.2761 19.5 18H21.5ZM20 19.5C20.8284 19.5 21.5 18.8284 21.5 18H19.5C19.5 17.7239 19.7239 17.5 20 17.5V19.5ZM13 19.5H20V17.5H13V19.5ZM11.5 18C11.5 18.8284 12.1716 19.5 13 19.5V17.5C13.2761 17.5 13.5 17.7239 13.5 18H11.5ZM13.5 21C13.5 21.2761 13.2761 21.5 13 21.5V19.5C12.1716 19.5 11.5 20.1716 11.5 21H13.5ZM13 20.5C13.2761 20.5 13.5 20.7239 13.5 21H11.5C11.5 21.8284 12.1716 22.5 13 22.5V20.5ZM20 20.5H13V22.5H20V20.5ZM19.5 21C19.5 20.7239 19.7239 20.5 20 20.5V22.5C20.8284 22.5 21.5 21.8284 21.5 21H19.5ZM20 21.5C19.7239 21.5 19.5 21.2761 19.5 21H21.5C21.5 20.1716 20.8284 19.5 20 19.5V21.5ZM13 21.5H20V19.5H13V21.5Z" fill="#1A3365" mask="url(#path-2-inside-1)"/>
</svg>
