<svg width="24" height="24" viewBox="0 0 24 24" fill="none" xmlns="http://www.w3.org/2000/svg">
<path d="M11.7431 21.7323C6.22623 21.7323 1.75391 17.26 1.75391 11.7431C1.75391 6.22623 6.22623 1.75391 11.7431 1.75391C17.26 1.75391 21.7323 6.22623 21.7323 11.7431C21.7323 13.5626 21.2459 15.2684 20.396 16.7377" stroke="#1E1E1E" stroke-width="1.5" stroke-linecap="round"/>
<path d="M19.6375 15.083L20.0076 16.687C20.066 16.94 20.3421 17.0754 20.5779 16.9666L22.2153 16.2108" stroke="#1E1E1E" stroke-width="1.5" stroke-linecap="round"/>
<path d="M12.038 16.7697C12.7368 16.7697 13.2016 16.6837 13.6902 16.4366C14.1817 16.1896 14.5547 15.8565 14.8093 15.4374C15.0669 15.0183 15.1957 14.5491 15.1957 14.0299C15.1957 13.5795 15.1084 13.1995 14.9337 12.8899C14.759 12.5803 14.3485 11.7452 13.1832 11.7452L11.3273 11.7077C10.6899 11.7077 9.93662 11.5241 9.43091 10.7772C9.01788 10.1671 9.01788 9.85921 9.01788 9.21179C9.01788 8.67383 9.15556 8.20469 9.43091 7.80435C9.70923 7.40088 10.0823 7.08812 10.5501 6.86605C11.0209 6.64086 11.5464 6.52827 12.1267 6.52827M12.038 16.7697C11.3866 16.7697 10.8226 16.6587 10.3459 16.4366C9.87219 16.2146 9.49913 15.9049 9.22673 15.5077C8.9573 15.1105 8.80482 14.6492 8.76929 14.1237M12.038 16.7697V18.7075M12.1267 6.52827C12.713 6.52827 13.2341 6.6393 13.69 6.86136C14.146 7.0803 14.5072 7.38055 14.7737 7.76212C15.0431 8.1437 15.1853 8.57688 15.2001 9.06166M12.1267 6.52827V4.67676" stroke="#1E1E1E" stroke-width="1.5" stroke-linecap="round"/>
</svg>
